<!--
  Gaffer Icon: BodyIcon
  Auto-generated by scripts/export_gaffer_icons.mjs
  Source: src/components/ui/icons/GafferIcons.tsx
  DO NOT EDIT — edit the source .tsx and re-run the script.
-->
<svg width="24" height="24" viewBox="0 0 24 24" fill="none" stroke="currentColor" stroke-width="1.5" stroke-linecap="round" stroke-linejoin="round"><path d="M5 8c0-2 2-4 5-4 2 0 3 1 4 2"></path><path d="M14 6c3 1 5 4 5 7 0 3-2 5-4 6"></path><path d="M5 8c-1 2-1 5 0 7 1 1 2 2 4 2 1 0 2-1 2-2 0-2-2-3-3-5"></path><path d="M9 11c1 1 2 2 3 2" stroke-width="0.8" opacity="0.6" stroke="#c9972e"></path><circle cx="19" cy="19" r="1.2" stroke="#c9972e" stroke-width="1"></circle></svg>
