<!--
  Gaffer Icon: GlovesIcon
  Auto-generated by scripts/export_gaffer_icons.mjs
  Source: src/components/ui/icons/GafferIcons.tsx
  DO NOT EDIT — edit the source .tsx and re-run the script.
-->
<svg width="24" height="24" viewBox="0 0 24 24" fill="none" stroke="currentColor" stroke-width="1.5" stroke-linecap="round" stroke-linejoin="round"><path d="M6 10V8c0-1 1-2 2-2s2 1 2 2v2"></path><path d="M10 8V6c0-1 1-2 2-2s2 1 2 2v2"></path><path d="M14 8V6c0-1 1-2 2-2s2 1 2 2v4"></path><path d="M6 10c-1 0-2 1-2 2v3c0 3 2 5 5 5h6c2 0 3-1 3-3v-7"></path><path d="M4 19h8" stroke-width="1.5" stroke="#c9972e"></path><path d="M4 19v1M12 19v1" stroke-width="0.8" stroke="#c9972e"></path><line x1="10" y1="10" x2="10" y2="14" stroke-width="0.6" opacity="0.5"></line><line x1="14" y1="10" x2="14" y2="14" stroke-width="0.6" opacity="0.5"></line></svg>
