<!--
  Gaffer Icon: HeadIcon
  Auto-generated by scripts/export_gaffer_icons.mjs
  Source: src/components/ui/icons/GafferIcons.tsx
  DO NOT EDIT — edit the source .tsx and re-run the script.
-->
<svg width="24" height="24" viewBox="0 0 24 24" fill="none" stroke="currentColor" stroke-width="1.5" stroke-linecap="round" stroke-linejoin="round"><path d="M7 18c0-3 0-5 1-7 1-2 3-3 5-3 3 0 5 2 5 5 0 2-1 3-1 4 0 1 1 1 1 2"></path><path d="M18 14c0-2 1-3 1-5 0-4-3-7-7-7-3 0-6 2-7 5"></path><path d="M10 9c1-1 2-1 3 0 1 1 1 2 0 3 1 1 1 2 0 3-1 1-2 1-3 0" stroke-width="0.8" stroke="#c9972e" opacity="0.85"></path><line x1="8" y1="18" x2="8" y2="21" stroke-width="0.8"></line><line x1="13" y1="19" x2="13" y2="21" stroke-width="0.8"></line></svg>
